<svg width="172" height="79" viewBox="0 0 172 79" fill="none" xmlns="http://www.w3.org/2000/svg">
  <path d="M54.2 6.04C55.64 6.04 57.8 7.6 57.92 8.32C57.92 8.56 57.68 8.8 57.56 9.03999C57.08 10.24 56.6 10.84 55.28 11.92C54.8 12.4 54.32 13 53.84 13.48C53.24 13.96 52.76 14.8 52.04 14.92C51.56 15.04 50.72 14.44 50.12 14.08C49.64 13.72 49.28 13.84 48.92 14.2C47.12 15.4 45.2 16.36 43.52 17.68C41.24 19.6 38.84 21.4 36.56 23.32C35.48 24.28 34.88 25.6 33.68 26.32C32.48 27.28 32.48 28.84 31.88 30.04C31.16 31.24 32.12 32.32 32.48 33.28C32.96 34.6 33.68 35.92 34.88 37C35.84 37.96 36.56 39.28 37.64 40.24C40.16 42.64 42.92 44.8 45.44 47.2C47 48.64 48.44 50.44 48.8 52.48C49.04 53.68 48.2 55.36 47.48 56.56C42.92 64.48 27.44 71.44 19.16 73.48C16.28 74.32 13.4 74.68 10.64 75.88C9.56 76.36 8.48 76.12 7.64 76.48C6.44 76.84 5.48 76.48 4.52 76.48C3.08 76.48 2.6 75.28 1.52 75.04C0.92 74.92 1.64 73.48 0.68 73C0.68 73 0.8 72.4 0.92 72.28C1.88 71.44 2.96 71.44 3.92 72.28C5 73.12 6.08 73.48 7.4 73.48C8.72 73.36 10.16 73.48 11.6 73.36C12.92 73.36 14.24 73 15.44 72.76C17.48 72.16 19.52 71.68 21.44 70.72C25.16 68.92 28.76 66.88 32.36 64.84C36.08 62.68 39.08 59.68 42.92 57.76C43.52 57.4 44 56.68 44.6 56.08C46.88 53.68 47 52.12 44.6 49.72C43.16 48.4 41.72 47.2 40.16 46C36.92 43.6 33.8 41.2 31.4 37.72C30.68 36.76 29.96 35.68 29.24 34.84C28.28 33.76 29.24 32.2 28.04 31.36C28.4 30.04 28.76 28.72 29.24 27.4C30.32 23.2 38.36 16.48 41.6 13.84C44 11.8 46.88 10.24 49.52 8.43999C50.6 7.72 51.8 7.24 52.88 6.64C53.48 6.27999 54.08 6.16 54.2 6.04ZM123.188 42.88C124.388 43.72 124.868 45.04 124.508 46.48C124.148 47.8 123.428 49 122.828 50.2C121.868 51.88 121.028 53.68 120.068 55.24C118.148 58.48 117.068 62.08 115.868 65.44C115.748 65.92 115.748 66.4 115.628 66.88C115.628 67.72 115.748 68.44 115.628 69.28C115.628 70 114.428 71.32 113.828 71.32C113.348 71.32 112.148 70 112.148 69.28C111.908 65.44 112.508 61.84 113.948 58.36C115.388 55.36 116.828 52.24 118.388 49.24C118.508 48.88 118.508 48.52 118.508 48.16C118.148 48.28 117.668 48.28 117.428 48.4C114.908 50.44 112.388 52.24 110.708 55C110.228 55.84 109.148 56.2 108.668 57.16C108.188 58 107.708 58.72 106.988 59.44C104.108 62.2 102.308 65.8 100.148 69.04C99.3078 70.24 97.9878 70.96 96.9078 71.8C96.4278 72.28 94.0278 71.68 93.7878 71.08C93.3078 70 92.7078 69.04 93.3078 67.6C94.7478 64.84 96.4278 62.2 97.9878 59.44C98.8278 58.12 100.028 56.92 100.748 55.48C102.668 51.4 105.308 47.68 107.228 43.6C107.708 42.64 108.428 41.56 107.708 40.36C104.228 42.4 100.868 44.44 98.1078 47.32C96.6678 48.88 95.2278 50.56 93.4278 51.64C92.5878 52.12 92.2278 53.32 91.6278 53.8C90.9078 54.52 90.4278 55.12 89.8278 55.72C86.5878 58.96 83.1078 62.08 79.7478 65.32C78.9078 66.28 77.9478 67.24 77.2278 68.32C76.6278 69.4 75.5478 70 74.5878 70.72C73.7478 71.32 72.5478 72.04 71.4678 70.96C70.5078 70.12 70.0278 68.68 70.5078 67.36C70.9878 66.16 71.4678 65.08 71.9478 64C74.1078 59.68 76.2678 55 77.4678 50.2C77.4678 50.08 77.1078 49.72 76.9878 49.6C76.7478 49.48 76.5078 49.48 76.3878 49.6C72.4278 52.36 68.4678 55 65.1078 58.36C62.7078 60.76 60.6678 63.4 57.7878 65.2C56.9478 66.76 55.2678 67.36 54.1878 68.68C51.5478 71.8 48.3078 74.2 44.8278 76.24C43.8678 76.84 43.0278 77.08 42.1878 76.24C41.2278 75.16 40.8678 75.52 41.7078 73.36C42.3078 71.68 43.5078 70.48 44.3478 69.04C45.6678 66.88 47.5878 65.08 49.1478 63.04C50.9478 60.4 53.3478 58 55.0278 55.36C55.3878 54.88 55.8678 54.52 56.3478 54.04C58.5078 51.88 60.9078 49.72 63.0678 47.32C64.6278 45.52 66.7878 44.44 68.7078 43C69.4278 42.4 70.6278 42.28 71.5878 42.16C72.4278 42.04 73.2678 42.16 73.9878 42.16C75.6678 41.92 76.9878 42.28 77.5878 44.2C77.8278 44.92 78.6678 45.76 79.8678 45.76C80.3478 45.76 81.0678 46.84 81.0678 47.44C80.9478 48.76 81.6678 50.2 80.4678 51.4C80.4678 53.68 79.0278 55.48 78.4278 57.64C77.7078 59.56 76.8678 61.6 76.0278 63.52C75.7878 64.24 75.5478 64.84 75.3078 65.56C75.1878 65.68 75.3078 65.92 75.4278 65.92C75.6678 66.04 75.9078 66.04 76.0278 65.92L77.1078 64.84C79.6278 62.08 82.6278 59.92 84.7878 56.68C85.3878 55.84 86.3478 54.88 87.1878 54.28C88.0278 53.8 88.1478 52.84 88.8678 52.6C89.8278 52.36 89.9478 51.52 90.4278 50.92C92.2278 49.36 93.7878 47.56 95.7078 46.36C96.6678 45.76 97.3878 45.16 98.2278 44.32C100.748 42.04 103.748 40.36 106.748 38.56C107.708 38.08 108.668 37.6 109.748 38.2C110.588 38.8 111.308 40.84 110.828 41.92C109.868 44.08 108.908 46.48 107.588 48.52C105.308 52.48 103.028 56.44 101.108 60.52C100.748 61.36 100.148 62.08 99.5478 62.8C99.5478 62.92 99.6678 63.16 99.6678 63.4C100.388 63.4 101.708 61.96 101.828 61.36C102.188 60.52 102.788 60.16 103.268 59.56C106.028 56.92 108.068 53.56 110.468 50.68C113.108 47.56 115.988 44.44 119.948 42.64C121.268 41.92 122.348 42.28 123.188 42.88ZM69.5478 51.52C70.5078 50.92 74.4678 47.8 74.4678 46.6C74.4678 46.48 73.9878 46.36 73.8678 46.24C73.2678 46.36 72.6678 46.24 72.3078 46.48C70.7478 47.56 68.7078 48.04 67.3878 49.6C66.3078 50.92 64.9878 51.88 63.5478 52.72C60.1878 54.88 57.9078 58.12 55.0278 60.76C54.9078 61.96 53.9478 62.56 53.1078 63.16C52.2678 63.76 51.9078 64.72 51.1878 65.44C49.6278 66.88 48.4278 68.8 47.1078 70.48C47.1078 70.6 47.1078 70.96 47.2278 71.08C47.2278 71.2 47.4678 71.2 47.5878 71.08C48.5478 70.36 49.6278 69.64 50.4678 68.8C54.9078 64.6 59.2278 60.4 63.7878 56.2C65.5878 54.52 67.3878 52.96 69.5478 51.52ZM162.102 41.08C163.782 41.92 163.902 42.04 162.822 43.48C161.622 45.28 160.422 47.08 158.982 48.76C156.462 51.76 154.302 55.12 153.102 58.84C152.622 60.28 152.622 61.36 152.742 62.56C152.862 63.64 153.942 64.36 155.022 64.36C156.462 64.36 158.502 62.2 158.862 60.88C159.102 60.16 160.662 59.92 161.382 60.16C161.982 60.52 162.582 61.72 162.222 62.2C160.782 64 159.582 66.16 157.302 67.24C156.822 67.36 156.102 67.84 155.862 67.6C154.902 66.88 153.702 67.72 153.102 67.24C151.662 66.04 150.102 64.84 149.862 62.92C149.622 61.96 149.862 61 150.102 59.92C151.182 56.68 152.382 53.56 154.422 50.92C154.542 50.8 154.422 50.32 154.302 50.08C154.182 50.2 154.062 50.2 153.942 50.32C153.222 50.8 151.902 51.4 151.782 52C151.422 53.32 150.342 53.2 149.742 53.8C147.222 56.68 144.222 58.96 141.822 61.84C139.062 65.32 135.582 68.2 133.302 72.04C132.942 72.76 132.102 73.36 131.502 73.96C130.062 74.92 128.862 76.12 127.542 77.32C126.582 78.16 125.622 78.04 124.542 77.92C123.822 77.92 122.382 75.88 122.382 75.16C122.142 72.88 122.502 70.84 123.582 68.8C125.262 65.8 127.182 62.92 128.982 59.68C130.902 56.32 133.182 52.96 135.102 49.48C137.382 45.76 139.062 41.92 141.222 37.96C143.262 34.36 144.942 30.28 147.582 26.92C151.062 22.72 152.862 17.68 155.502 12.88C156.462 11.2 156.942 8.92 157.782 7C157.902 6.75999 158.142 6.4 158.022 6.27999C156.462 4.59999 158.502 3.51999 158.742 2.2C158.862 0.999997 160.182 1.23999 160.902 0.519996C161.262 0.279999 162.822 1.6 162.822 2.31999C162.822 5.07999 162.582 5.92 161.622 8.43999C161.382 9.03999 161.382 9.88 160.902 10.48C159.102 12.76 158.142 15.52 156.342 17.8C154.662 19.96 153.942 22.6 152.742 25C150.462 29.56 147.822 33.88 145.182 38.2C141.702 44.2 137.502 49.84 133.782 55.48C130.782 60.16 128.382 64.72 126.702 69.88C126.222 71.08 126.102 72.4 125.742 74.32C127.902 72.16 129.582 70.72 131.622 69.52C132.102 69.28 132.462 68.8 132.942 68.32C138.342 63.28 143.502 57.64 147.942 51.64C150.702 50.2 152.022 47.2 154.662 45.76C155.862 45.16 156.822 44.32 157.902 43.36C158.862 42.64 159.942 41.92 160.782 40.96C161.382 40.36 161.622 40.72 162.102 41.08ZM170.982 32.2C171.222 32.44 171.102 33.28 171.222 33.88C171.342 34.72 170.382 34.36 170.262 34.6C169.782 35.56 169.302 34.36 168.942 34.72C168.702 34.96 168.582 35.56 168.342 35.8C167.742 36.4 167.142 36.76 166.662 36.76C166.062 36.76 165.462 36.28 164.862 35.56C164.502 35.08 164.382 34.48 164.022 33.88C163.422 32.44 164.382 30.52 165.822 30.28H167.022C168.822 30.04 169.782 31.48 170.982 32.2Z" fill="white"/>
</svg>

