<svg width="138" height="99" viewBox="0 0 138 99" fill="none" xmlns="http://www.w3.org/2000/svg">
	<path d="M1.6 84.04C2.16 84.76 2.76 85.52 3.4 86.32C3.96 87.12 5.4 88.08 7.72 89.2C11 90.72 14.56 91.92 18.4 92.8C22.32 93.68 26.28 94.12 30.28 94.12C34.44 94.12 38.32 93.6 41.92 92.56C43.04 92.24 44.32 91.76 45.76 91.12C47.28 90.48 48.68 89.72 49.96 88.84C51.24 87.96 52.24 86.92 52.96 85.72C53.76 84.44 54.04 83.04 53.8 81.52C53.64 79.92 52.36 78.16 49.96 76.24C47.64 74.24 44.84 72.04 41.56 69.64C39.64 68.2 37.96 66.96 36.52 65.92C35.16 64.8 33.96 63.72 32.92 62.68C31.88 61.64 30.92 60.56 30.04 59.44C29.24 58.32 28.4 57.08 27.52 55.72C26.24 53.64 25.32 51.64 24.76 49.72C24.28 47.72 24.36 45.2 25 42.16C25.64 39.36 27 36.44 29.08 33.4C31.24 30.36 33.84 27.36 36.88 24.4C40 21.44 43.44 18.64 47.2 16C50.96 13.28 54.68 10.88 58.36 8.8C62.12 6.63999 65.76 4.88 69.28 3.52C72.8 2.16 75.84 1.36 78.4 1.11999C79.04 1.04 79.68 0.999996 80.32 0.999996C80.96 0.919997 81.6 0.879997 82.24 0.879997C83.36 0.879997 84.48 0.999996 85.6 1.23999C86.72 1.47999 87.72 1.96 88.6 2.68C89.56 3.47999 90.28 4.43999 90.76 5.55999C91.24 6.67999 91.52 7.84 91.6 9.04C91.76 10.24 91.72 11.48 91.48 12.76C91.32 13.96 91.08 15.12 90.76 16.24C90.52 16.96 90.24 17.84 89.92 18.88C89.6 19.84 89.2 20.6 88.72 21.16C89.12 20.76 89.32 20.52 89.32 20.44C89.32 20.36 89.24 20.32 89.08 20.32C88.76 20.32 88.44 20.08 88.12 19.6C87.96 19.36 87.8 19.12 87.64 18.88C88.04 17.92 88.4 16.92 88.72 15.88C88.96 15 89.2 14.04 89.44 13C89.68 11.96 89.84 10.96 89.92 9.99999C90 9.04 90 8.2 89.92 7.48C89.92 6.68 89.44 6 88.48 5.44C87.12 4.64 85.4 4.24 83.32 4.24C79.4 4.24 75.08 5.24 70.36 7.23999C65.64 9.15999 61 11.6 56.44 14.56C51.88 17.52 47.64 20.68 43.72 24.04C39.88 27.32 36.8 30.36 34.48 33.16C32.4 35.56 30.6 38.2 29.08 41.08C27.56 43.88 26.92 46.92 27.16 50.2C27.32 52.52 28.04 54.56 29.32 56.32C30.6 58 32.04 59.56 33.64 61C36.28 63.32 39.12 65.52 42.16 67.6C45.28 69.6 48.04 71.8 50.44 74.2C51.24 75 52.04 75.92 52.84 76.96C53.64 77.92 54.32 78.96 54.88 80.08C55.52 81.2 55.96 82.36 56.2 83.56C56.52 84.76 56.48 85.92 56.08 87.04C55.44 89.04 54.16 90.76 52.24 92.2C50.4 93.56 48.28 94.64 45.88 95.44C43.48 96.24 41.04 96.8 38.56 97.12C36.08 97.52 33.88 97.72 31.96 97.72C25.08 97.72 18.32 96.36 11.68 93.64C9.44 92.76 7.4 91.72 5.56 90.52C3.64 89.24 2.12 87.24 1 84.52C0.92 84.36 0.96 84.2 1.12 84.04C1.28 83.88 1.44 83.88 1.6 84.04ZM73.0225 88.24C71.9825 89.36 70.9825 90.4 70.0225 91.36C69.1425 92.16 68.2225 92.96 67.2625 93.76C66.3825 94.56 65.5825 95.12 64.8625 95.44C64.5425 95.6 64.1425 95.68 63.6625 95.68C63.1825 95.68 62.7825 95.52 62.4625 95.2C62.2225 94.96 61.9425 94.64 61.6225 94.24C61.2225 93.76 60.8625 93.36 60.5425 93.04C60.2225 92.72 60.0625 92 60.0625 90.88C60.0625 89.6 60.3425 88.2 60.9025 86.68C61.5425 85.16 62.3825 83.76 63.4225 82.48C64.4625 81.12 65.6225 80 66.9025 79.12C68.2625 78.16 69.7025 77.68 71.2225 77.68H71.4625C72.4225 77.84 73.2625 78.24 73.9825 78.88C74.7025 79.44 75.3825 80.12 76.0225 80.92C76.6625 80.28 77.1025 79.8 77.3425 79.48C77.5825 79.16 77.8225 79 78.0625 79C78.1425 79 78.5825 79.32 79.3825 79.96C79.5425 80.12 79.7425 80.32 79.9825 80.56C80.3025 80.72 80.4625 80.96 80.4625 81.28C80.3825 81.68 80.1425 82.16 79.7425 82.72C79.3425 83.28 79.0625 83.76 78.9025 84.16C78.3425 85.04 77.8225 85.96 77.3425 86.92C76.9425 87.8 76.5825 88.72 76.2625 89.68C76.1825 89.84 76.0625 90.12 75.9025 90.52C75.8225 90.92 75.7025 91.36 75.5425 91.84C75.4625 92.24 75.3825 92.64 75.3025 93.04C75.3025 93.36 75.3825 93.56 75.5425 93.64C75.7025 93.8 76.1425 93.68 76.8625 93.28C77.6625 92.88 78.2225 92.6 78.5425 92.44C79.9025 91.56 81.1425 90.48 82.2625 89.2C83.3825 87.92 84.3825 86.72 85.2625 85.6C85.4225 85.44 85.7825 85.68 86.3425 86.32C86.9825 86.88 87.3025 87.28 87.3025 87.52C87.3025 87.68 87.1825 87.96 86.9425 88.36C86.7025 88.68 86.4225 89.04 86.1025 89.44C85.7825 89.84 85.4625 90.24 85.1425 90.64C84.8225 90.96 84.5425 91.24 84.3025 91.48C83.5025 92.36 82.4225 93.36 81.0625 94.48C79.7825 95.68 78.5025 96.28 77.2225 96.28C76.5025 96.28 75.8225 95.96 75.1825 95.32C74.6225 94.76 74.1025 94.24 73.6225 93.76C72.9825 93.28 72.6225 92.56 72.5425 91.6C72.4625 90.56 72.6225 89.44 73.0225 88.24ZM62.9425 92.92C64.7825 91.32 66.5025 89.76 68.1025 88.24C69.4625 86.96 70.7825 85.72 72.0625 84.52C73.4225 83.24 74.3825 82.28 74.9425 81.64C74.5425 80.92 73.9025 80.56 73.0225 80.56C72.3825 80.56 71.7825 80.72 71.2225 81.04C70.6625 81.36 70.1825 81.64 69.7825 81.88C68.0225 83 66.4625 84.6 65.1025 86.68C63.7425 88.76 63.0225 90.84 62.9425 92.92ZM81.0137 94.84C81.1737 94.2 81.6937 92.92 82.5738 91C83.5338 89 84.5338 86.92 85.5738 84.76C86.6938 82.6 87.6938 80.64 88.5738 78.88C89.5338 77.12 90.0938 76.2 90.2538 76.12C90.4138 75.96 90.8538 76.16 91.5738 76.72C92.3738 77.2 92.7738 77.64 92.7738 78.04C92.7738 78.28 92.5738 78.72 92.1738 79.36C91.8538 80 91.4538 80.8 90.9738 81.76C90.4938 82.64 89.9738 83.64 89.4138 84.76C88.8538 85.8 88.3738 86.84 87.9738 87.88C88.3738 87.48 88.9738 86.92 89.7738 86.2C90.6538 85.4 91.5738 84.64 92.5338 83.92C93.4938 83.12 94.4138 82.44 95.2938 81.88C96.1738 81.24 96.8538 80.92 97.3338 80.92C97.7338 80.92 98.2138 81.2 98.7738 81.76C99.3338 82.32 99.6538 82.76 99.7337 83.08C99.8938 83.88 99.8538 84.8 99.6138 85.84C99.3738 86.8 99.1738 87.72 99.0138 88.6C98.9338 89 98.8538 89.68 98.7738 90.64C98.7738 91.52 98.9338 92.12 99.2538 92.44C100.294 92.28 101.294 91.92 102.254 91.36C103.294 90.8 104.214 90.2 105.014 89.56C105.894 88.84 106.654 88.16 107.294 87.52C107.934 86.88 108.374 86.48 108.614 86.32C108.694 86.24 108.814 86.28 108.974 86.44C109.214 86.6 109.454 86.8 109.694 87.04C109.934 87.2 110.134 87.4 110.294 87.64C110.454 87.88 110.534 88.04 110.534 88.12C110.534 88.2 110.214 88.6 109.574 89.32C108.934 90.04 108.134 90.8 107.174 91.6C106.214 92.32 105.174 93 104.054 93.64C102.934 94.28 101.854 94.56 100.814 94.48C100.174 94.4 99.6138 94.2 99.1338 93.88C98.7338 93.56 98.2138 93.08 97.5738 92.44C97.1738 91.96 96.8938 91.28 96.7338 90.4C96.5738 89.68 96.5338 88.76 96.6138 87.64C96.6938 86.44 96.9738 85.04 97.4538 83.44C95.4538 84.8 93.5338 86.4 91.6938 88.24C89.8538 90.08 88.1338 91.92 86.5338 93.76C86.3738 93.92 86.1338 94.2 85.8138 94.6C85.5738 95 85.2938 95.4 84.9738 95.8C84.6538 96.2 84.3338 96.52 84.0138 96.76C83.7738 97.08 83.5738 97.24 83.4138 97.24C83.1738 97.16 82.9338 96.96 82.6938 96.64C82.5338 96.4 82.2938 96.2 81.9737 96.04C81.7337 95.88 81.4937 95.72 81.2537 95.56C81.0137 95.4 80.9337 95.16 81.0137 94.84ZM106.38 86.92C107.82 82.6 109.62 78 111.78 73.12C114.02 68.16 116.06 63.36 117.9 58.72C118.46 57.28 118.98 55.92 119.46 54.64C119.86 53.6 120.22 52.6 120.54 51.64C120.86 50.6 121.06 49.88 121.14 49.48L120.3 48.88L121.5 46.96C122.38 47.36 122.98 47.76 123.3 48.16C123.62 48.56 123.86 49 124.02 49.48C124.34 50.36 124.26 51.56 123.78 53.08C123.38 54.6 122.98 56.04 122.58 57.4C122.18 58.84 121.5 60.68 120.54 62.92C119.66 65.16 118.7 67.56 117.66 70.12C116.62 72.68 115.54 75.32 114.42 78.04C113.38 80.68 112.42 83.16 111.54 85.48C110.66 87.8 109.94 89.88 109.38 91.72C108.9 93.56 108.7 94.88 108.78 95.68C109.9 95.6 111.14 95.12 112.5 94.24C113.86 93.36 115.18 92.36 116.46 91.24C117.82 90.04 119.06 88.88 120.18 87.76C121.3 86.56 122.22 85.6 122.94 84.88C123.1 84.72 123.22 84.64 123.3 84.64C123.46 84.64 123.62 84.76 123.78 85C124.02 85.16 124.3 85.36 124.62 85.6C124.86 85.76 125.14 85.92 125.46 86.08C125.78 86.24 125.82 86.48 125.58 86.8C122.3 90.88 119.38 93.84 116.82 95.68C114.26 97.52 112.18 98.44 110.58 98.44C109.78 98.44 108.9 98.04 107.94 97.24C107.06 96.52 106.38 95.88 105.9 95.32C105.26 94.44 105.02 93.24 105.18 91.72C105.42 90.12 105.82 88.52 106.38 86.92ZM120.766 91.36C120.766 90.72 120.886 90 121.126 89.2C121.446 88.32 121.766 87.48 122.086 86.68C122.406 85.8 122.726 85 123.046 84.28C123.366 83.56 123.646 83.04 123.886 82.72C123.566 82.56 123.486 82.24 123.646 81.76C123.806 81.28 124.126 80.72 124.606 80.08C125.086 79.44 125.606 78.72 126.166 77.92C126.806 77.12 127.366 76.36 127.846 75.64C127.926 75.48 128.086 75.48 128.326 75.64C128.646 75.72 128.926 75.88 129.166 76.12C129.486 76.36 129.766 76.64 130.006 76.96C130.246 77.2 130.406 77.44 130.486 77.68C130.566 77.92 130.486 78.28 130.246 78.76C130.086 79.16 129.846 79.6 129.526 80.08C129.286 80.56 129.006 81.04 128.686 81.52C128.446 81.92 128.246 82.28 128.086 82.6C127.286 84.2 126.446 86 125.566 88C124.686 89.92 124.166 91.68 124.006 93.28C125.846 92.48 127.766 91.32 129.766 89.8C131.846 88.2 133.806 86.32 135.646 84.16C135.646 84.08 135.766 84.16 136.006 84.4C136.326 84.56 136.606 84.76 136.846 85C137.166 85.24 137.406 85.52 137.566 85.84C137.806 86.08 137.886 86.24 137.806 86.32C137.486 86.88 136.766 87.72 135.646 88.84C134.606 89.88 133.446 90.96 132.166 92.08C130.886 93.2 129.606 94.16 128.326 94.96C127.046 95.84 126.046 96.28 125.326 96.28C125.086 96.28 124.726 96.2 124.246 96.04C121.766 94.84 120.606 93.28 120.766 91.36ZM133.246 63.4C133.486 63.24 133.886 63.48 134.446 64.12C135.086 64.68 135.686 65.2 136.246 65.68C136.166 66.16 136.086 66.64 136.006 67.12C136.006 67.52 135.926 68.04 135.766 68.68L134.806 67.84L132.406 73C131.846 72.52 131.326 72.08 130.846 71.68C130.366 71.28 130.046 70.92 129.886 70.6C129.806 70.36 129.846 69.88 130.006 69.16C130.246 68.44 130.566 67.68 130.966 66.88C131.366 66.08 131.766 65.36 132.166 64.72C132.646 64 133.006 63.56 133.246 63.4Z" fill="black"/>
</svg>

