<svg xmlns="http://www.w3.org/2000/svg" xmlns:xlink="http://www.w3.org/1999/xlink" aria-hidden="true" role="img" class="iconify iconify--logos" width="165" height="165" fill="none" preserveAspectRatio="xMidYMid meet" viewBox="0 0 165 165">
  <g clip-path="url(#clip0_42_248)">
    <rect width="165" height="165" fill="black" />
    <path d="M9.6 103.04C10.16 103.76 10.76 104.52 11.4 105.32C11.96 106.12 13.4 107.08 15.72 108.2C19 109.72 22.56 110.92 26.4 111.8C30.32 112.68 34.28 113.12 38.28 113.12C42.44 113.12 46.32 112.6 49.92 111.56C51.04 111.24 52.32 110.76 53.76 110.12C55.28 109.48 56.68 108.72 57.96 107.84C59.24 106.96 60.24 105.92 60.96 104.72C61.76 103.44 62.04 102.04 61.8 100.52C61.64 98.92 60.36 97.16 57.96 95.24C55.64 93.24 52.84 91.04 49.56 88.64C47.64 87.2 45.96 85.96 44.52 84.92C43.16 83.8 41.96 82.72 40.92 81.68C39.88 80.64 38.92 79.56 38.04 78.44C37.24 77.32 36.4 76.08 35.52 74.72C34.24 72.64 33.32 70.64 32.76 68.72C32.28 66.72 32.36 64.2 33 61.16C33.64 58.36 35 55.44 37.08 52.4C39.24 49.36 41.84 46.36 44.88 43.4C48 40.44 51.44 37.64 55.2 35C58.96 32.28 62.68 29.88 66.36 27.8C70.12 25.64 73.76 23.88 77.28 22.52C80.8 21.16 83.84 20.36 86.4 20.12C87.04 20.04 87.68 20 88.32 20C88.96 19.92 89.6 19.88 90.24 19.88C91.36 19.88 92.48 20 93.6 20.24C94.72 20.48 95.72 20.96 96.6 21.68C97.56 22.48 98.28 23.44 98.76 24.56C99.24 25.68 99.52 26.84 99.6 28.04C99.76 29.24 99.72 30.48 99.48 31.76C99.32 32.96 99.08 34.12 98.76 35.24C98.52 35.96 98.24 36.84 97.92 37.88C97.6 38.84 97.2 39.6 96.72 40.16C97.12 39.76 97.32 39.52 97.32 39.44C97.32 39.36 97.24 39.32 97.08 39.32C96.76 39.32 96.44 39.08 96.12 38.6C95.96 38.36 95.8 38.12 95.64 37.88C96.04 36.92 96.4 35.92 96.72 34.88C96.96 34 97.2 33.04 97.44 32C97.68 30.96 97.84 29.96 97.92 29C98 28.04 98 27.2 97.92 26.48C97.92 25.68 97.44 25 96.48 24.44C95.12 23.64 93.4 23.24 91.32 23.24C87.4 23.24 83.08 24.24 78.36 26.24C73.64 28.16 69 30.6 64.44 33.56C59.88 36.52 55.64 39.68 51.72 43.04C47.88 46.32 44.8 49.36 42.48 52.16C40.4 54.56 38.6 57.2 37.08 60.08C35.56 62.88 34.92 65.92 35.16 69.2C35.32 71.52 36.04 73.56 37.32 75.32C38.6 77 40.04 78.56 41.64 80C44.28 82.32 47.12 84.52 50.16 86.6C53.28 88.6 56.04 90.8 58.44 93.2C59.24 94 60.04 94.92 60.84 95.96C61.64 96.92 62.32 97.96 62.88 99.08C63.52 100.2 63.96 101.36 64.2 102.56C64.52 103.76 64.48 104.92 64.08 106.04C63.44 108.04 62.16 109.76 60.24 111.2C58.4 112.56 56.28 113.64 53.88 114.44C51.48 115.24 49.04 115.8 46.56 116.12C44.08 116.52 41.88 116.72 39.96 116.72C33.08 116.72 26.32 115.36 19.68 112.64C17.44 111.76 15.4 110.72 13.56 109.52C11.64 108.24 10.12 106.24 9 103.52C8.92 103.36 8.96 103.2 9.12 103.04C9.28 102.88 9.44 102.88 9.6 103.04ZM81.0225 107.24C79.9825 108.36 78.9825 109.4 78.0225 110.36C77.1425 111.16 76.2225 111.96 75.2625 112.76C74.3825 113.56 73.5825 114.12 72.8625 114.44C72.5425 114.6 72.1425 114.68 71.6625 114.68C71.1825 114.68 70.7825 114.52 70.4625 114.2C70.2225 113.96 69.9425 113.64 69.6225 113.24C69.2225 112.76 68.8625 112.36 68.5425 112.04C68.2225 111.72 68.0625 111 68.0625 109.88C68.0625 108.6 68.3425 107.2 68.9025 105.68C69.5425 104.16 70.3825 102.76 71.4225 101.48C72.4625 100.12 73.6225 99 74.9025 98.12C76.2625 97.16 77.7025 96.68 79.2225 96.68H79.4625C80.4225 96.84 81.2625 97.24 81.9825 97.88C82.7025 98.44 83.3825 99.12 84.0225 99.92C84.6625 99.28 85.1025 98.8 85.3425 98.48C85.5825 98.16 85.8225 98 86.0625 98C86.1425 98 86.5825 98.32 87.3825 98.96C87.5425 99.12 87.7425 99.32 87.9825 99.56C88.3025 99.72 88.4625 99.96 88.4625 100.28C88.3825 100.68 88.1425 101.16 87.7425 101.72C87.3425 102.28 87.0625 102.76 86.9025 103.16C86.3425 104.04 85.8225 104.96 85.3425 105.92C84.9425 106.8 84.5825 107.72 84.2625 108.68C84.1825 108.84 84.0625 109.12 83.9025 109.52C83.8225 109.92 83.7025 110.36 83.5425 110.84C83.4625 111.24 83.3825 111.64 83.3025 112.04C83.3025 112.36 83.3825 112.56 83.5425 112.64C83.7025 112.8 84.1425 112.68 84.8625 112.28C85.6625 111.88 86.2225 111.6 86.5425 111.44C87.9025 110.56 89.1425 109.48 90.2625 108.2C91.3825 106.92 92.3825 105.72 93.2625 104.6C93.4225 104.44 93.7825 104.68 94.3425 105.32C94.9825 105.88 95.3025 106.28 95.3025 106.52C95.3025 106.68 95.1825 106.96 94.9425 107.36C94.7025 107.68 94.4225 108.04 94.1025 108.44C93.7825 108.84 93.4625 109.24 93.1425 109.64C92.8225 109.96 92.5425 110.24 92.3025 110.48C91.5025 111.36 90.4225 112.36 89.0625 113.48C87.7825 114.68 86.5025 115.28 85.2225 115.28C84.5025 115.28 83.8225 114.96 83.1825 114.32C82.6225 113.76 82.1025 113.24 81.6225 112.76C80.9825 112.28 80.6225 111.56 80.5425 110.6C80.4625 109.56 80.6225 108.44 81.0225 107.24ZM70.9425 111.92C72.7825 110.32 74.5025 108.76 76.1025 107.24C77.4625 105.96 78.7825 104.72 80.0625 103.52C81.4225 102.24 82.3825 101.28 82.9425 100.64C82.5425 99.92 81.9025 99.56 81.0225 99.56C80.3825 99.56 79.7825 99.72 79.2225 100.04C78.6625 100.36 78.1825 100.64 77.7825 100.88C76.0225 102 74.4625 103.6 73.1025 105.68C71.7425 107.76 71.0225 109.84 70.9425 111.92ZM89.0137 113.84C89.1737 113.2 89.6937 111.92 90.5738 110C91.5338 108 92.5338 105.92 93.5738 103.76C94.6938 101.6 95.6938 99.64 96.5738 97.88C97.5338 96.12 98.0938 95.2 98.2538 95.12C98.4138 94.96 98.8538 95.16 99.5738 95.72C100.374 96.2 100.774 96.64 100.774 97.04C100.774 97.28 100.574 97.72 100.174 98.36C99.8538 99 99.4538 99.8 98.9738 100.76C98.4938 101.64 97.9738 102.64 97.4138 103.76C96.8538 104.8 96.3738 105.84 95.9738 106.88C96.3738 106.48 96.9738 105.92 97.7738 105.2C98.6538 104.4 99.5738 103.64 100.534 102.92C101.494 102.12 102.414 101.44 103.294 100.88C104.174 100.24 104.854 99.92 105.334 99.92C105.734 99.92 106.214 100.2 106.774 100.76C107.334 101.32 107.654 101.76 107.734 102.08C107.894 102.88 107.854 103.8 107.614 104.84C107.374 105.8 107.174 106.72 107.014 107.6C106.934 108 106.854 108.68 106.774 109.64C106.774 110.52 106.934 111.12 107.254 111.44C108.294 111.28 109.294 110.92 110.254 110.36C111.294 109.8 112.214 109.2 113.014 108.56C113.894 107.84 114.654 107.16 115.294 106.52C115.934 105.88 116.374 105.48 116.614 105.32C116.694 105.24 116.814 105.28 116.974 105.44C117.214 105.6 117.454 105.8 117.694 106.04C117.934 106.2 118.134 106.4 118.294 106.64C118.454 106.88 118.534 107.04 118.534 107.12C118.534 107.2 118.214 107.6 117.574 108.32C116.934 109.04 116.134 109.8 115.174 110.6C114.214 111.32 113.174 112 112.054 112.64C110.934 113.28 109.854 113.56 108.814 113.48C108.174 113.4 107.614 113.2 107.134 112.88C106.734 112.56 106.214 112.08 105.574 111.44C105.174 110.96 104.894 110.28 104.734 109.4C104.574 108.68 104.534 107.76 104.614 106.64C104.694 105.44 104.974 104.04 105.454 102.44C103.454 103.8 101.534 105.4 99.6938 107.24C97.8538 109.08 96.1338 110.92 94.5338 112.76C94.3738 112.92 94.1338 113.2 93.8138 113.6C93.5738 114 93.2938 114.4 92.9738 114.8C92.6538 115.2 92.3338 115.52 92.0138 115.76C91.7738 116.08 91.5738 116.24 91.4138 116.24C91.1738 116.16 90.9338 115.96 90.6938 115.64C90.5338 115.4 90.2938 115.2 89.9737 115.04C89.7337 114.88 89.4937 114.72 89.2537 114.56C89.0137 114.4 88.9337 114.16 89.0137 113.84ZM114.38 105.92C115.82 101.6 117.62 97 119.78 92.12C122.02 87.16 124.06 82.36 125.9 77.72C126.46 76.28 126.98 74.92 127.46 73.64C127.86 72.6 128.22 71.6 128.54 70.64C128.86 69.6 129.06 68.88 129.14 68.48L128.3 67.88L129.5 65.96C130.38 66.36 130.98 66.76 131.3 67.16C131.62 67.56 131.86 68 132.02 68.48C132.34 69.36 132.26 70.56 131.78 72.08C131.38 73.6 130.98 75.04 130.58 76.4C130.18 77.84 129.5 79.68 128.54 81.92C127.66 84.16 126.7 86.56 125.66 89.12C124.62 91.68 123.54 94.32 122.42 97.04C121.38 99.68 120.42 102.16 119.54 104.48C118.66 106.8 117.94 108.88 117.38 110.72C116.9 112.56 116.7 113.88 116.78 114.68C117.9 114.6 119.14 114.12 120.5 113.24C121.86 112.36 123.18 111.36 124.46 110.24C125.82 109.04 127.06 107.88 128.18 106.76C129.3 105.56 130.22 104.6 130.94 103.88C131.1 103.72 131.22 103.64 131.3 103.64C131.46 103.64 131.62 103.76 131.78 104C132.02 104.16 132.3 104.36 132.62 104.6C132.86 104.76 133.14 104.92 133.46 105.08C133.78 105.24 133.82 105.48 133.58 105.8C130.3 109.88 127.38 112.84 124.82 114.68C122.26 116.52 120.18 117.44 118.58 117.44C117.78 117.44 116.9 117.04 115.94 116.24C115.06 115.52 114.38 114.88 113.9 114.32C113.26 113.44 113.02 112.24 113.18 110.72C113.42 109.12 113.82 107.52 114.38 105.92ZM128.766 110.36C128.766 109.72 128.886 109 129.126 108.2C129.446 107.32 129.766 106.48 130.086 105.68C130.406 104.8 130.726 104 131.046 103.28C131.366 102.56 131.646 102.04 131.886 101.72C131.566 101.56 131.486 101.24 131.646 100.76C131.806 100.28 132.126 99.72 132.606 99.08C133.086 98.44 133.606 97.72 134.166 96.92C134.806 96.12 135.366 95.36 135.846 94.64C135.926 94.48 136.086 94.48 136.326 94.64C136.646 94.72 136.926 94.88 137.166 95.12C137.486 95.36 137.766 95.64 138.006 95.96C138.246 96.2 138.406 96.44 138.486 96.68C138.566 96.92 138.486 97.28 138.246 97.76C138.086 98.16 137.846 98.6 137.526 99.08C137.286 99.56 137.006 100.04 136.686 100.52C136.446 100.92 136.246 101.28 136.086 101.6C135.286 103.2 134.446 105 133.566 107C132.686 108.92 132.166 110.68 132.006 112.28C133.846 111.48 135.766 110.32 137.766 108.8C139.846 107.2 141.806 105.32 143.646 103.16C143.646 103.08 143.766 103.16 144.006 103.4C144.326 103.56 144.606 103.76 144.846 104C145.166 104.24 145.406 104.52 145.566 104.84C145.806 105.08 145.886 105.24 145.806 105.32C145.486 105.88 144.766 106.72 143.646 107.84C142.606 108.88 141.446 109.96 140.166 111.08C138.886 112.2 137.606 113.16 136.326 113.96C135.046 114.84 134.046 115.28 133.326 115.28C133.086 115.28 132.726 115.2 132.246 115.04C129.766 113.84 128.606 112.28 128.766 110.36ZM141.246 82.4C141.486 82.24 141.886 82.48 142.446 83.12C143.086 83.68 143.686 84.2 144.246 84.68C144.166 85.16 144.086 85.64 144.006 86.12C144.006 86.52 143.926 87.04 143.766 87.68L142.806 86.84L140.406 92C139.846 91.52 139.326 91.08 138.846 90.68C138.366 90.28 138.046 89.92 137.886 89.6C137.806 89.36 137.846 88.88 138.006 88.16C138.246 87.44 138.566 86.68 138.966 85.88C139.366 85.08 139.766 84.36 140.166 83.72C140.646 83 141.006 82.56 141.246 82.4Z" fill="white" />
  </g>
</svg>
